<svg width="157" height="56" viewBox="0 0 157 56" fill="none" xmlns="http://www.w3.org/2000/svg">
<g clip-path="url(#clip0_18_142)">
<path d="M0 14.8434H5.05172V31.0861H7.51109V14.8434H12.6293V55.8178H7.51109V35.2303H5.05172V55.8178H0V14.8434ZM18.8235 28.4124C18.8235 26.5408 19.3774 25.0925 20.4853 24.0676C21.6374 22.9981 23.0111 22.4634 24.6064 22.4634C26.2017 22.4634 27.5532 22.9981 28.6611 24.0676C29.8132 25.0925 30.3893 26.5631 30.3893 28.4792V50.0025C30.3893 51.9186 29.8132 53.4337 28.6611 54.5478C27.5089 55.6618 26.1573 56.2188 24.6064 56.2188C23.0554 56.2188 21.7038 55.6618 20.5517 54.5478C19.3995 53.4337 18.8235 51.9409 18.8235 50.0693V28.4124ZM23.6758 50.203C23.6758 50.6486 23.7644 50.9605 23.9417 51.1388C24.1632 51.2725 24.407 51.3393 24.6729 51.3393C24.9388 51.3393 25.1382 51.2725 25.2711 51.1388C25.4483 50.9605 25.537 50.6486 25.537 50.203V27.1424H23.6758V50.203ZM36.2391 14.8434H41.025V55.8178H36.2391V14.8434ZM47.0244 14.8434H51.7438V20.2576H47.0244V14.8434ZM47.1573 22.7307H51.8767V55.8178H47.1573V22.7307ZM63.993 55.1493C63.4613 55.7286 62.6857 56.0183 61.6666 56.0183C59.0964 56.0183 57.8113 54.0353 57.8113 50.0693V28.3455C57.8113 24.3796 59.0078 22.3966 61.4007 22.3966C62.3755 22.3966 63.1289 22.6862 63.6607 23.2655C64.1924 23.8448 64.4804 24.4687 64.5248 25.1371H64.9236V14.8434H69.5763V55.8178H65.3224V53.2777H64.9236C64.8793 53.9461 64.569 54.57 63.993 55.1493ZM63.1954 51.2057C63.3283 51.5176 63.572 51.6736 63.9266 51.6736C64.281 51.6736 64.5026 51.5398 64.5913 51.2725C64.7242 50.9605 64.7907 50.5149 64.7907 49.9356V28.4792C64.7907 27.3206 64.4804 26.7413 63.8601 26.7413C63.5055 26.7413 63.2619 26.8973 63.1289 27.2092C63.0402 27.4766 62.996 27.8999 62.996 28.4792V49.9356C62.996 50.4704 63.0624 50.8937 63.1954 51.2057ZM79.3358 56.0183C76.7655 56.0183 75.4806 54.0353 75.4806 50.0693V28.3455C75.4806 24.3796 76.7655 22.3966 79.3358 22.3966C80.355 22.3966 81.1306 22.6862 81.662 23.2655C82.2383 23.8448 82.5483 24.4687 82.5926 25.1371H82.9918V22.7307H87.2456V55.8178H82.9918V53.2777H82.5926C82.5483 53.9461 82.2383 54.57 81.662 55.1493C81.1306 55.7286 80.355 56.0183 79.3358 56.0183ZM81.5956 51.6736C81.9498 51.6736 82.1719 51.5176 82.2605 51.2057C82.3933 50.8937 82.4597 50.4481 82.4597 49.8688V28.546C82.4597 27.9667 82.3933 27.5212 82.2605 27.2092C82.1276 26.8973 81.8834 26.7413 81.5291 26.7413C81.1749 26.7413 80.9307 26.875 80.7978 27.1424C80.7093 27.4097 80.665 27.8331 80.665 28.4124V50.0025C80.665 50.5372 80.7314 50.9605 80.8642 51.2725C80.9971 51.5398 81.2413 51.6736 81.5956 51.6736ZM92.1521 51.6067L98.3342 26.7413H92.8835L87.2456 22.7307H102.987V26.9419L96.8715 51.8072H103.12L111.925 55.8178H92.1521V51.6067ZM119.196 42.115V50.0025C119.196 51.8741 118.62 53.3446 117.467 54.4141C116.315 55.4835 114.986 56.0183 113.479 56.0183C111.973 56.0183 110.665 55.5059 109.558 54.4809C108.45 53.4115 107.896 51.9409 107.896 50.0693V28.4124C107.896 26.5408 108.45 25.0925 109.558 24.0676C110.665 22.9981 111.973 22.4634 113.479 22.4634C114.986 22.4634 116.315 22.9981 117.467 24.0676C118.62 25.1371 119.196 26.6076 119.196 28.4792V39.0403H112.748V50.2699C112.748 50.7155 112.814 51.0274 112.948 51.2057C113.125 51.3839 113.324 51.473 113.546 51.473C113.767 51.473 113.945 51.3839 114.078 51.2057C114.255 51.0274 114.343 50.7155 114.343 50.2699V42.115H119.196ZM114.343 27.1424H112.814V35.5645H114.343V27.1424Z" fill="#543786"/>
<path d="M138.723 2.0241L138.124 8.6415C138.08 9.1762 138.213 9.62184 138.523 9.97835C138.878 10.2903 139.276 10.4463 139.72 10.4463C140.118 10.4463 140.428 10.3571 140.651 10.1789L146.034 6.4357L149.358 12.251L143.242 14.9915C142.622 15.3035 142.312 15.8159 142.312 16.5289C142.312 17.1973 142.622 17.6875 143.242 17.9994L149.358 20.74L146.034 26.5552L140.651 22.8121C140.428 22.6338 140.118 22.5447 139.72 22.5447C139.276 22.5447 138.878 22.7229 138.523 23.0794C138.213 23.3914 138.08 23.8147 138.124 24.3494L138.723 30.9669H132.076L132.674 24.3494C132.762 23.8147 132.629 23.3914 132.275 23.0794C131.92 22.7229 131.522 22.5447 131.078 22.5447C130.68 22.5447 130.37 22.6338 130.148 22.8121L124.764 26.5552L121.44 20.74L127.556 17.9994C128.176 17.6875 128.486 17.1973 128.486 16.5289C128.486 15.8159 128.176 15.3035 127.556 14.9915L121.44 12.251L124.764 6.4357L130.148 10.1789C130.37 10.3571 130.68 10.4463 131.078 10.4463C131.522 10.4463 131.92 10.2903 132.275 9.97835C132.629 9.62184 132.762 9.1762 132.674 8.6415L132.076 2.0241H138.723Z" fill="#FEB838"/>
</g>
<defs>
<clipPath id="clip0_18_142">
<rect width="157" height="56" fill="white"/>
</clipPath>
</defs>
</svg>
